HIERARCHY
ROOT root
{
	OFFSET 0.000000 0.000000 0.000000
	CHANNELS 6 Xposition Yposition Zposition Zrotation Yrotation Xrotation
	JOINT lhip
	{
		OFFSET 0.058581 -0.082280 -0.017664
		CHANNELS 3 Zrotation Yrotation Xrotation
		JOINT lknee
		{
			OFFSET 0.043451 -0.386469 0.008037
			CHANNELS 3 Zrotation Yrotation Xrotation
			JOINT lankle
			{
				OFFSET -0.014790 -0.426874 -0.037428
				CHANNELS 3 Zrotation Yrotation Xrotation
				JOINT ltoe
				{
					OFFSET 0.041054 -0.060286 0.122042
					CHANNELS 3 Zrotation Yrotation Xrotation
					End Site
					{
						OFFSET 0.000000 0.000000 0.000000
					}
				}
			}
		}
	}
	JOINT rhip
	{
		OFFSET -0.060310 -0.090513 -0.013543
		CHANNELS 3 Zrotation Yrotation Xrotation
		JOINT rknee
		{
			OFFSET -0.043257 -0.383688 -0.004843
			CHANNELS 3 Zrotation Yrotation Xrotation
			JOINT rankle
			{
				OFFSET 0.019056 -0.420046 -0.034562
				CHANNELS 3 Zrotation Yrotation Xrotation
				JOINT rtoe
				{
					OFFSET -0.034840 -0.062106 0.130323
					CHANNELS 3 Zrotation Yrotation Xrotation
					End Site
					{
						OFFSET 0.000000 0.000000 0.000000
					}
				}
			}
		}
	}
	JOINT lowerback
	{
		OFFSET 0.004439 0.124404 -0.038385
		CHANNELS 3 Zrotation Yrotation Xrotation
		JOINT upperback
		{
			OFFSET 0.004488 0.137956 0.026820
			CHANNELS 3 Zrotation Yrotation Xrotation
			JOINT chest
			{
				OFFSET -0.002265 0.056032 0.002855
				CHANNELS 3 Zrotation Yrotation Xrotation
				JOINT lowerneck
				{
					OFFSET -0.013390 0.211636 -0.033468
					CHANNELS 3 Zrotation Yrotation Xrotation
					JOINT upperneck
					{
						OFFSET 0.010113 0.088937 0.050410
						CHANNELS 3 Zrotation Yrotation Xrotation
						End Site
						{
							OFFSET 0.000000 0.000000 0.000000
						}
					}
				}
				JOINT lclavicle
				{
					OFFSET 0.071702 0.114000 -0.018898
					CHANNELS 3 Zrotation Yrotation Xrotation
					JOINT lshoulder
					{
						OFFSET 0.122921 0.045205 -0.019046
						CHANNELS 3 Zrotation Yrotation Xrotation
						JOINT lelbow
						{
							OFFSET 0.255332 -0.015649 -0.022946
							CHANNELS 3 Zrotation Yrotation Xrotation
							JOINT lwrist
							{
								OFFSET 0.265709 0.012698 -0.007375
								CHANNELS 3 Zrotation Yrotation Xrotation
								End Site
								{
									OFFSET 0.000000 0.000000 0.000000
								}
							}
						}
					}
				}
				JOINT rclavicle
				{
					OFFSET -0.082954 0.112472 -0.023707
					CHANNELS 3 Zrotation Yrotation Xrotation
					JOINT rshoulder
					{
						OFFSET -0.113228 0.046853 -0.008472
						CHANNELS 3 Zrotation Yrotation Xrotation
						JOINT relbow
						{
							OFFSET -0.260127 -0.014369 -0.031269
							CHANNELS 3 Zrotation Yrotation Xrotation
							JOINT rwrist
							{
								OFFSET -0.269108 0.006794 -0.006027
								CHANNELS 3 Zrotation Yrotation Xrotation
								End Site
								{
									OFFSET 0.000000 0.000000 0.000000
								}
							}
						}
					}
				}
			}
		}
	}
}
MOTION
Frames: 6
Frame Time: 0.033333
-1.784197 0.263486 0.990343 91.223144 0.866967 88.884810 1.041202 1.077319 0.178040 -1.697516 -5.590869 5.671322 6.852513 13.004679 -13.123741 0.000000 -0.000000 0.000000 -1.081580 -2.183039 -3.067871 0.816463 0.384506 14.196108 1.690210 -9.121550 -15.342479 0.000000 -0.000000 0.000000 0.915848 2.540140 5.313055 -0.541033 1.982651 -7.269303 -0.751380 -1.933784 2.013590 2.706762 -4.915285 1.165629 0.725659 -6.867199 9.714632 -27.017106 0.054021 3.996797 -54.401122 -7.905826 9.129139 7.279638 -23.710763 11.482756 -2.151513 2.192543 2.209834 21.425973 1.183013 -0.620669 59.366547 0.048521 16.136651 -10.299365 26.786356 7.408467 -1.895896 -1.109361 -0.556818 
-1.783881 0.262648 0.990269 91.340047 0.890655 88.897241 1.113691 1.050622 0.256467 -1.684498 -5.658022 5.493820 6.895104 12.918729 -12.922749 0.000000 -0.000000 0.000000 -0.996453 -2.161242 -2.955848 0.831360 0.472760 14.076104 1.894484 -9.312090 -15.440194 0.000000 -0.000000 0.000000 0.671220 2.683776 5.839556 -0.578887 2.242257 -7.557728 -0.498121 -2.180930 1.798325 2.990940 -4.916165 0.485447 0.810234 -6.626989 9.286138 -26.562429 0.156725 4.024157 -55.035007 -8.306653 9.314423 7.896496 -23.794599 11.134304 -1.536449 1.790047 0.842906 21.082188 0.673927 -1.272708 59.725546 -0.010874 16.727953 -10.263515 27.393001 8.088596 -2.240154 -1.242367 -1.230496 
-1.784398 0.262009 0.990477 91.643805 1.048444 88.775736 1.350351 0.854645 0.360962 -1.728885 -5.672806 5.467838 6.917358 12.806168 -12.930147 0.000000 -0.000000 0.000000 -0.767820 -2.169130 -2.730358 0.845845 0.442256 13.919952 1.968761 -9.552976 -15.452102 0.000000 -0.000000 0.000000 0.022254 3.408598 5.788596 -0.267494 2.681236 -7.122018 0.089467 -2.764136 1.897885 3.387861 -5.396083 -0.136620 0.998315 -7.780056 9.623048 -26.741911 -0.577823 4.213317 -55.211955 -9.209404 9.531757 8.409406 -23.441725 9.970085 -0.824873 1.832558 1.021706 21.466784 0.417105 -2.217258 58.877627 -0.313269 16.896198 -10.288011 27.813033 7.608557 -2.575980 -1.167248 -1.272289 
-1.784184 0.260682 0.990594 91.705497 1.182380 88.617522 1.612267 0.915682 0.649647 -1.815090 -5.819032 5.236293 6.628606 12.768510 -12.865601 0.000000 -0.000000 0.000000 -0.482167 -2.087544 -2.378821 0.791614 0.607557 13.636254 1.977934 -9.820348 -15.416863 0.000000 -0.000000 0.000000 -0.513022 3.889064 5.655445 -0.034907 3.152294 -6.847699 0.569103 -3.192623 2.168463 3.823284 -5.643736 -0.765501 1.031031 -8.678387 9.968678 -26.737232 -1.449518 4.817078 -55.334809 -10.086131 9.744662 8.940853 -23.332162 9.167641 -0.556751 1.880527 1.052161 21.818443 0.476546 -2.955689 58.503555 -0.332094 17.107634 -10.609490 28.081809 7.029810 -2.619956 -1.318303 -1.536977 
-1.783953 0.260243 0.990698 91.746797 1.198517 88.550529 1.676167 1.060743 0.744922 -1.823438 -5.911639 5.205884 6.544182 12.670349 -12.864002 0.000000 -0.000000 0.000000 -0.420680 -2.117887 -2.239365 0.749335 0.578787 13.550477 1.939982 -9.789223 -15.396227 0.000000 -0.000000 0.000000 -0.457694 3.468856 5.812702 0.092388 2.685513 -6.875890 0.453992 -2.877860 1.980570 3.887554 -5.244694 -0.734424 0.848932 -8.339349 10.094356 -26.860319 -1.181214 4.769785 -54.790004 -9.720132 9.620762 8.739817 -23.874631 9.295647 -0.593341 1.772103 0.984894 22.242725 1.007751 -2.642688 58.367726 0.090370 17.081791 -10.769356 27.818742 6.778498 -2.704942 -1.270010 -1.389841 
-1.783542 0.259497 0.990418 91.945552 1.299808 88.428821 1.847287 1.228061 0.835359 -1.872756 -5.990382 5.309964 6.468537 12.383293 -13.096891 0.000000 -0.000000 0.000000 -0.264624 -2.219386 -1.975515 0.690711 0.486872 13.411073 1.991918 -9.722919 -15.440135 0.000000 -0.000000 0.000000 -0.577753 3.157965 6.244163 0.308705 2.196650 -6.686331 0.583425 -2.772386 1.556944 4.053661 -4.959581 -1.148253 0.884105 -8.343845 10.113868 -26.481966 -0.570753 4.295475 -55.039528 -9.460069 9.718051 8.395846 -24.475103 9.937821 -0.533256 1.543873 0.915316 22.548636 1.148349 -3.005753 58.146973 0.466835 17.254736 -10.441125 27.648874 7.042928 -2.785514 -1.093494 -1.138299 
